 http://desibbrg.org/images/66952052392581364616.gif 
http://desibbrg.org/images/50103775576814531961.jpg 
http://desibbrg.org/images/91340651741372895147.jpg

Media Info - 
Video
ID : 224 (0xE0)
Format : MPEG Video
Format version : Version 2
Format profile : Main@Main
Format settings, BVOP : Yes
Format settings, Matrix : Default
Format settings, GOP : M=3, N=13
Duration : 1h 52mn
Bit rate mode : Variable
Bit rate : 738 Kbps
Maximum bit rate : 9 672 Kbps
Width : 352 pixels
Height : 288 pixels
Display aspect ratio : 4:3
Frame rate : 25.000 fps
Standard : PAL
Color space : YUV
Chroma subsampling : 4:2:0
Bit depth : 8 bits
Scan type : Progressive
Compression mode : Lossy
Bits/(Pixel*Frame) : 0.291
Stream size : 594 MiB (84%)

Audio
ID : 192 (0xC0)
Format : MPEG Audio
Format version : Version 1
Format profile : Layer 2
Duration : 1h 52mn
Bit rate mode : Constant
Bit rate : 128 Kbps
Channel(s) : 2 channels
Sampling rate : 48.0 KHz
Compression mode : Lossy
Stream size : 103 MiB (14%)

Ripper : CryMe.007

Seeding 24x7... Extreme Seeding...


Enjoy!
